<mxfile host="Electron" modified="2024-04-02T18:56:01.518Z" agent="Mozilla/5.0 (Windows NT 10.0; Win64; x64) AppleWebKit/537.36 (KHTML, like Gecko) draw.io/24.1.0 Chrome/120.0.6099.109 Electron/28.1.0 Safari/537.36" etag="d9-nWMk8bbxGBZEylrm9" version="24.1.0" type="device">
  <diagram name="Page-1" id="MwBE6oOL2N1eClu3vzFH">
    <mxGraphModel dx="1084" dy="951" grid="1" gridSize="10" guides="1" tooltips="1" connect="1" arrows="1" fold="1" page="1" pageScale="1" pageWidth="850" pageHeight="1100" math="0" shadow="0">
      <root>
        <mxCell id="0" />
        <mxCell id="1" parent="0" />
        <mxCell id="m6S9LD4SkrAyg9ewOb2b-6" style="edgeStyle=orthogonalEdgeStyle;rounded=0;orthogonalLoop=1;jettySize=auto;html=1;entryX=0;entryY=0.5;entryDx=0;entryDy=0;" parent="1" source="m6S9LD4SkrAyg9ewOb2b-1" target="m6S9LD4SkrAyg9ewOb2b-2" edge="1">
          <mxGeometry relative="1" as="geometry" />
        </mxCell>
        <mxCell id="sT9mULu3zec0IayDAC_C-2" style="edgeStyle=orthogonalEdgeStyle;rounded=0;orthogonalLoop=1;jettySize=auto;html=1;endArrow=none;endFill=0;dashed=1;" parent="1" source="m6S9LD4SkrAyg9ewOb2b-1" target="sT9mULu3zec0IayDAC_C-1" edge="1">
          <mxGeometry relative="1" as="geometry" />
        </mxCell>
        <mxCell id="m6S9LD4SkrAyg9ewOb2b-1" value="Problem" style="rounded=0;whiteSpace=wrap;html=1;fillColor=#f8cecc;strokeColor=#b85450;" parent="1" vertex="1">
          <mxGeometry x="190" y="330" width="120" height="60" as="geometry" />
        </mxCell>
        <mxCell id="m6S9LD4SkrAyg9ewOb2b-7" style="edgeStyle=orthogonalEdgeStyle;rounded=0;orthogonalLoop=1;jettySize=auto;html=1;entryX=0;entryY=0.5;entryDx=0;entryDy=0;" parent="1" source="m6S9LD4SkrAyg9ewOb2b-2" target="m6S9LD4SkrAyg9ewOb2b-4" edge="1">
          <mxGeometry relative="1" as="geometry" />
        </mxCell>
        <mxCell id="sT9mULu3zec0IayDAC_C-5" style="edgeStyle=orthogonalEdgeStyle;rounded=0;orthogonalLoop=1;jettySize=auto;html=1;endArrow=none;endFill=0;dashed=1;" parent="1" source="m6S9LD4SkrAyg9ewOb2b-2" target="sT9mULu3zec0IayDAC_C-4" edge="1">
          <mxGeometry relative="1" as="geometry" />
        </mxCell>
        <mxCell id="m6S9LD4SkrAyg9ewOb2b-2" value="Learn" style="rounded=0;whiteSpace=wrap;html=1;fillColor=#d5e8d4;strokeColor=#82b366;" parent="1" vertex="1">
          <mxGeometry x="425" y="330" width="120" height="60" as="geometry" />
        </mxCell>
        <mxCell id="m6S9LD4SkrAyg9ewOb2b-9" style="edgeStyle=orthogonalEdgeStyle;rounded=0;orthogonalLoop=1;jettySize=auto;html=1;entryX=1;entryY=0.5;entryDx=0;entryDy=0;" parent="1" source="m6S9LD4SkrAyg9ewOb2b-3" target="m6S9LD4SkrAyg9ewOb2b-5" edge="1">
          <mxGeometry relative="1" as="geometry">
            <Array as="points">
              <mxPoint x="920" y="530" />
            </Array>
          </mxGeometry>
        </mxCell>
        <mxCell id="sT9mULu3zec0IayDAC_C-9" style="edgeStyle=orthogonalEdgeStyle;rounded=0;orthogonalLoop=1;jettySize=auto;html=1;endArrow=none;endFill=0;dashed=1;" parent="1" source="m6S9LD4SkrAyg9ewOb2b-3" target="sT9mULu3zec0IayDAC_C-8" edge="1">
          <mxGeometry relative="1" as="geometry" />
        </mxCell>
        <mxCell id="m6S9LD4SkrAyg9ewOb2b-3" value="Adapt" style="rounded=0;whiteSpace=wrap;html=1;fillColor=#ffe6cc;strokeColor=#d79b00;" parent="1" vertex="1">
          <mxGeometry x="895" y="330" width="120" height="60" as="geometry" />
        </mxCell>
        <mxCell id="m6S9LD4SkrAyg9ewOb2b-8" style="edgeStyle=orthogonalEdgeStyle;rounded=0;orthogonalLoop=1;jettySize=auto;html=1;" parent="1" source="m6S9LD4SkrAyg9ewOb2b-4" target="m6S9LD4SkrAyg9ewOb2b-3" edge="1">
          <mxGeometry relative="1" as="geometry" />
        </mxCell>
        <mxCell id="sT9mULu3zec0IayDAC_C-7" style="edgeStyle=orthogonalEdgeStyle;rounded=0;orthogonalLoop=1;jettySize=auto;html=1;endArrow=none;endFill=0;dashed=1;" parent="1" source="m6S9LD4SkrAyg9ewOb2b-4" target="sT9mULu3zec0IayDAC_C-6" edge="1">
          <mxGeometry relative="1" as="geometry" />
        </mxCell>
        <mxCell id="m6S9LD4SkrAyg9ewOb2b-4" value="Design" style="rounded=0;whiteSpace=wrap;html=1;fillColor=#dae8fc;strokeColor=#6c8ebf;" parent="1" vertex="1">
          <mxGeometry x="665" y="330" width="120" height="60" as="geometry" />
        </mxCell>
        <mxCell id="m6S9LD4SkrAyg9ewOb2b-10" style="edgeStyle=orthogonalEdgeStyle;rounded=0;orthogonalLoop=1;jettySize=auto;html=1;entryX=0.5;entryY=1;entryDx=0;entryDy=0;" parent="1" source="m6S9LD4SkrAyg9ewOb2b-5" target="m6S9LD4SkrAyg9ewOb2b-1" edge="1">
          <mxGeometry relative="1" as="geometry" />
        </mxCell>
        <mxCell id="sT9mULu3zec0IayDAC_C-11" style="edgeStyle=orthogonalEdgeStyle;rounded=0;orthogonalLoop=1;jettySize=auto;html=1;endArrow=none;endFill=0;dashed=1;" parent="1" source="m6S9LD4SkrAyg9ewOb2b-5" target="sT9mULu3zec0IayDAC_C-10" edge="1">
          <mxGeometry relative="1" as="geometry" />
        </mxCell>
        <mxCell id="m6S9LD4SkrAyg9ewOb2b-5" value="Evaluate" style="rounded=0;whiteSpace=wrap;html=1;fillColor=#bac8d3;strokeColor=#23445d;" parent="1" vertex="1">
          <mxGeometry x="530" y="500" width="120" height="60" as="geometry" />
        </mxCell>
        <mxCell id="sT9mULu3zec0IayDAC_C-1" value="&lt;ul&gt;&lt;li&gt;Identify clearly&lt;/li&gt;&lt;/ul&gt;" style="text;html=1;align=left;verticalAlign=middle;resizable=0;points=[];autosize=1;strokeColor=none;fillColor=none;fontSize=14;" parent="1" vertex="1">
          <mxGeometry x="175" y="215" width="150" height="60" as="geometry" />
        </mxCell>
        <mxCell id="sT9mULu3zec0IayDAC_C-4" value="&lt;div&gt;&lt;ul&gt;&lt;li&gt;Architecture approaches&lt;/li&gt;&lt;li&gt;Patterns&lt;/li&gt;&lt;li&gt;Principles &amp;amp; best practices&lt;/li&gt;&lt;/ul&gt;&lt;/div&gt;" style="text;html=1;align=left;verticalAlign=middle;resizable=0;points=[];autosize=1;strokeColor=none;fillColor=none;fontSize=14;" parent="1" vertex="1">
          <mxGeometry x="370" y="215" width="230" height="90" as="geometry" />
        </mxCell>
        <mxCell id="sT9mULu3zec0IayDAC_C-6" value="&lt;ul&gt;&lt;li&gt;Fill design toolbox&lt;/li&gt;&lt;li&gt;Design Initial version (Prototype)&lt;/li&gt;&lt;/ul&gt;" style="text;html=1;align=left;verticalAlign=middle;resizable=0;points=[];autosize=1;strokeColor=none;fillColor=none;fontSize=14;" parent="1" vertex="1">
          <mxGeometry x="590" y="215" width="270" height="80" as="geometry" />
        </mxCell>
        <mxCell id="sT9mULu3zec0IayDAC_C-8" value="&lt;ul&gt;&lt;li&gt;Apply Software Tools&lt;/li&gt;&lt;li&gt;Application Frameworks&lt;/li&gt;&lt;li&gt;Databases&lt;/li&gt;&lt;/ul&gt;" style="text;html=1;align=left;verticalAlign=middle;resizable=0;points=[];autosize=1;strokeColor=none;fillColor=none;fontSize=14;" parent="1" vertex="1">
          <mxGeometry x="850" y="215" width="210" height="90" as="geometry" />
        </mxCell>
        <mxCell id="sT9mULu3zec0IayDAC_C-10" value="&lt;ul&gt;&lt;li&gt;What&#39;s wrong with this architecture?&lt;/li&gt;&lt;li&gt;How we can improve this current design?&lt;/li&gt;&lt;/ul&gt;" style="text;html=1;align=left;verticalAlign=middle;resizable=0;points=[];autosize=1;strokeColor=none;fillColor=none;fontSize=14;" parent="1" vertex="1">
          <mxGeometry x="430" y="585" width="320" height="80" as="geometry" />
        </mxCell>
      </root>
    </mxGraphModel>
  </diagram>
</mxfile>
